<svg xmlns="http://www.w3.org/2000/svg" x="0px" y="0px"
width="40" height="40"
viewBox="0 0 224 224"
style=" fill:#000000;"><g fill="none" fill-rule="nonzero" stroke="none" stroke-width="1" stroke-linecap="butt" stroke-linejoin="miter" stroke-miterlimit="10" stroke-dasharray="" stroke-dashoffset="0" font-family="none" font-weight="none" font-size="none" text-anchor="none" style="mix-blend-mode: normal"><path d="M0,224v-224h224v224z" fill="none"></path><g><g id="surface1"><path d="M24.5,24.5h175c3.86914,0 7,3.13086 7,7v161c0,3.86914 -3.13086,7 -7,7h-175c-3.86914,0 -7,-3.13086 -7,-7v-161c0,-3.86914 3.13086,-7 7,-7z" fill="#b93422"></path><path d="M31.5,182h161c7.73828,0 14,6.26172 14,14c0,1.92773 -1.57227,3.5 -3.5,3.5h-182c-1.92773,0 -3.5,-1.57227 -3.5,-3.5c0,-7.73828 6.26172,-14 14,-14z" fill="#c4939c"></path><path d="M199.5,21h-175c-5.79687,0 -10.5,4.70313 -10.5,10.5v161c0,5.79688 4.70313,10.5 10.5,10.5h175c5.79688,0 10.5,-4.70312 10.5,-10.5v-161c0,-5.79687 -4.70312,-10.5 -10.5,-10.5zM203,192.5c0,1.92773 -1.57227,3.5 -3.5,3.5h-175c-1.92773,0 -3.5,-1.57227 -3.5,-3.5v-161c0,-1.92773 1.57227,-3.5 3.5,-3.5h175c1.92773,0 3.5,1.57227 3.5,3.5z" fill="#8d6c9f"></path><path d="M49,175c-1.92773,0 -3.5,1.57227 -3.5,3.5v7c0,1.92773 1.57227,3.5 3.5,3.5c1.92773,0 3.5,-1.57227 3.5,-3.5v-7c0,-1.92773 -1.57227,-3.5 -3.5,-3.5z" fill="#8d6c9f"></path><path d="M31.5,175c-1.92773,0 -3.5,1.57227 -3.5,3.5v7c0,1.92773 1.57227,3.5 3.5,3.5c1.92773,0 3.5,-1.57227 3.5,-3.5v-7c0,-1.92773 -1.57227,-3.5 -3.5,-3.5z" fill="#8d6c9f"></path><path d="M101.5,175c-1.92773,0 -3.5,1.57227 -3.5,3.5v7c0,1.92773 1.57227,3.5 3.5,3.5c1.92773,0 3.5,-1.57227 3.5,-3.5v-7c0,-1.92773 -1.57227,-3.5 -3.5,-3.5z" fill="#8d6c9f"></path><path d="M119,175c-1.92773,0 -3.5,1.57227 -3.5,3.5v7c0,1.92773 1.57227,3.5 3.5,3.5c1.92773,0 3.5,-1.57227 3.5,-3.5v-7c0,-1.92773 -1.57227,-3.5 -3.5,-3.5z" fill="#8d6c9f"></path><path d="M136.5,175c-1.92773,0 -3.5,1.57227 -3.5,3.5v7c0,1.92773 1.57227,3.5 3.5,3.5c1.92773,0 3.5,-1.57227 3.5,-3.5v-7c0,-1.92773 -1.57227,-3.5 -3.5,-3.5z" fill="#8d6c9f"></path><path d="M154,175c-1.92773,0 -3.5,1.57227 -3.5,3.5v7c0,1.92773 1.57227,3.5 3.5,3.5c1.92773,0 3.5,-1.57227 3.5,-3.5v-7c0,-1.92773 -1.57227,-3.5 -3.5,-3.5z" fill="#8d6c9f"></path><path d="M171.5,175c-1.92773,0 -3.5,1.57227 -3.5,3.5v7c0,1.92773 1.57227,3.5 3.5,3.5c1.92773,0 3.5,-1.57227 3.5,-3.5v-7c0,-1.92773 -1.57227,-3.5 -3.5,-3.5z" fill="#8d6c9f"></path><path d="M189,175c-1.92773,0 -3.5,1.57227 -3.5,3.5v7c0,1.92773 1.57227,3.5 3.5,3.5c1.92773,0 3.5,-1.57227 3.5,-3.5v-7c0,-1.92773 -1.57227,-3.5 -3.5,-3.5z" fill="#8d6c9f"></path><path d="M66.5,175c-1.92773,0 -3.5,1.57227 -3.5,3.5v7c0,1.92773 1.57227,3.5 3.5,3.5c1.92773,0 3.5,-1.57227 3.5,-3.5v-7c0,-1.92773 -1.57227,-3.5 -3.5,-3.5z" fill="#8d6c9f"></path><path d="M84,175c-1.92773,0 -3.5,1.57227 -3.5,3.5v7c0,1.92773 1.57227,3.5 3.5,3.5c1.92773,0 3.5,-1.57227 3.5,-3.5v-7c0,-1.92773 -1.57227,-3.5 -3.5,-3.5z" fill="#8d6c9f"></path><path d="M171.5,77h-119c-1.92773,0 -3.5,1.57227 -3.5,3.5c0,1.92773 1.57227,3.5 3.5,3.5h119c1.92773,0 3.5,-1.57227 3.5,-3.5c0,-1.92773 -1.57227,-3.5 -3.5,-3.5z" fill="#faefde"></path><path d="M171.5,105h-119c-1.92773,0 -3.5,1.57227 -3.5,3.5c0,1.92773 1.57227,3.5 3.5,3.5h119c1.92773,0 3.5,-1.57227 3.5,-3.5c0,-1.92773 -1.57227,-3.5 -3.5,-3.5z" fill="#faefde"></path><path d="M171.5,133h-119c-1.92773,0 -3.5,1.57227 -3.5,3.5c0,1.92773 1.57227,3.5 3.5,3.5h119c1.92773,0 3.5,-1.57227 3.5,-3.5c0,-1.92773 -1.57227,-3.5 -3.5,-3.5z" fill="#faefde"></path></g></g></g></svg>
